<svg xmlns="http://www.w3.org/2000/svg" version="1.1" xmlns:xlink="http://www.w3.org/1999/xlink" xmlns:svgjs="http://svgjs.dev/svgjs" width="1920" height="1080" preserveAspectRatio="none" viewBox="0 0 1920 1080"><g mask="url(&quot;#SvgjsMask1082&quot;)" fill="none"><path d="M976.013,1049.058C1060.334,1047.506,1109.804,964.874,1152.227,891.986C1195.029,818.446,1245.237,733.064,1202.879,659.267C1160.423,585.3,1061.197,580.806,976.013,584.985C899.819,588.723,823.871,614.333,784.684,679.785C744.505,746.892,752.21,829.238,788.193,898.686C827.737,975.008,890.07,1050.64,976.013,1049.058" fill="rgba(139, 0, 255, 0.25)" class="triangle-float1"></path><path d="M1377.134,834.256C1425.772,834.199,1472.324,813.801,1498.672,772.918C1527.452,728.261,1539.969,670.056,1512.106,624.822C1485.187,581.12,1428.458,575.075,1377.134,575.606C1327.047,576.124,1273.232,584.946,1246.912,627.564C1219.529,671.904,1227.324,729.109,1255.104,773.202C1281.09,814.448,1328.385,834.313,1377.134,834.256" fill="rgba(139, 0, 255, 0.25)" class="triangle-float2"></path><path d="M517.412,729.347C547.969,728.635,574.791,710.829,590.24,684.456C605.873,657.768,610.51,624.362,594.364,597.981C578.784,572.524,547.256,565.124,517.412,565.464C488.293,565.796,459.213,575.221,443.439,599.7C426.325,626.259,422.798,660.552,438.456,687.994C454.237,715.652,485.578,730.089,517.412,729.347" fill="rgba(139, 0, 255, 0.25)" class="triangle-float1"></path><path d="M156.04,756.298C247.043,760.73,345.78,733.309,389.331,653.281C431.623,575.565,390.349,485.459,344.663,409.689C300.962,337.211,240.507,271.683,156.04,266.37C62.568,260.49,-34.316,300.59,-78.709,383.058C-121.401,462.367,-88.908,556.081,-40.955,632.325C3.317,702.716,72.982,752.253,156.04,756.298" fill="rgba(139, 0, 255, 0.25)" class="triangle-float1"></path><path d="M289.981,864.34C387.848,865.34,486.786,821.012,530.685,733.537C571.389,652.429,524.295,564.05,480.594,484.516C434.406,400.455,385.78,300.149,289.981,295.462C189.376,290.54,111.675,375.371,64.072,464.138C19.388,547.462,11.168,646.368,57.646,728.705C104.893,812.404,193.872,863.358,289.981,864.34" fill="rgba(139, 0, 255, 0.25)" class="triangle-float2"></path><path d="M1549.773,591.99C1641.549,584.47,1701.685,505.221,1745.405,424.178C1786.315,348.344,1810.96,259.898,1769.744,184.23C1726.987,105.732,1639.159,64.663,1549.773,65.016C1461.025,65.366,1381.497,111.766,1332.788,185.953C1278.085,269.269,1242.45,373.637,1289.426,461.541C1338.46,553.297,1446.085,600.486,1549.773,591.99" fill="rgba(139, 0, 255, 0.25)" class="triangle-float2"></path></g><defs><mask id="SvgjsMask1082"><rect width="1920" height="1080" fill="#ffffff"></rect></mask></defs></svg>