<svg xmlns="http://www.w3.org/2000/svg" version="1.1" xmlns:xlink="http://www.w3.org/1999/xlink" xmlns:svgjs="http://svgjs.dev/svgjs" width="1920" height="1080" preserveAspectRatio="none" viewBox="0 0 1920 1080"><g mask="url(&quot;#SvgjsMask12762&quot;)" fill="none"><path d="M510.15 952.12a5.6 5.6 0 1 0-11.2 0.21 5.6 5.6 0 1 0 11.2-0.21zM494.15 952.41a5.6 5.6 0 1 0-11.2 0.21 5.6 5.6 0 1 0 11.2-0.21zM478.15 952.71a5.6 5.6 0 1 0-11.19 0.2 5.6 5.6 0 1 0 11.19-0.2zM462.16 953a5.6 5.6 0 1 0-11.2 0.2 5.6 5.6 0 1 0 11.2-0.2zM541.85 935.55a5.6 5.6 0 1 0-11.2 0.2 5.6 5.6 0 1 0 11.2-0.2zM525.86 935.84a5.6 5.6 0 1 0-11.2 0.2 5.6 5.6 0 1 0 11.2-0.2zM509.86 936.13a5.6 5.6 0 1 0-11.2 0.2 5.6 5.6 0 1 0 11.2-0.2zM493.86 936.42a5.6 5.6 0 1 0-11.2 0.2 5.6 5.6 0 1 0 11.2-0.2zM573.56 918.97a5.6 5.6 0 1 0-11.2 0.2 5.6 5.6 0 1 0 11.2-0.2zM557.56 919.26a5.6 5.6 0 1 0-11.2 0.2 5.6 5.6 0 1 0 11.2-0.2zM541.56 919.55a5.6 5.6 0 1 0-11.2 0.2 5.6 5.6 0 1 0 11.2-0.2zM525.56 919.84a5.6 5.6 0 1 0-11.19 0.2 5.6 5.6 0 1 0 11.19-0.2z" fill="rgba(255, 0, 158, 0.37)"></path><rect width="672" height="672" clip-path="url(&quot;#SvgjsClipPath12763&quot;)" x="1152.88" y="269.77" fill="url(&quot;#SvgjsPattern12764&quot;)" transform="rotate(325.33, 1488.88, 605.77)"></rect><path d="M749.91 639.38a5.6 5.6 0 1 0 2.81-10.84 5.6 5.6 0 1 0-2.81 10.84zM753.93 623.89a5.6 5.6 0 1 0 2.82-10.84 5.6 5.6 0 1 0-2.82 10.84zM757.95 608.4a5.6 5.6 0 1 0 2.82-10.84 5.6 5.6 0 1 0-2.82 10.84zM761.97 592.92a5.6 5.6 0 1 0 2.82-10.84 5.6 5.6 0 1 0-2.82 10.84zM757.35 674.37a5.6 5.6 0 1 0 2.81-10.84 5.6 5.6 0 1 0-2.81 10.84zM761.37 658.88a5.6 5.6 0 1 0 2.82-10.84 5.6 5.6 0 1 0-2.82 10.84zM765.39 643.4a5.6 5.6 0 1 0 2.82-10.84 5.6 5.6 0 1 0-2.82 10.84zM769.42 627.91a5.6 5.6 0 1 0 2.81-10.84 5.6 5.6 0 1 0-2.81 10.84z" fill="rgba(75, 0, 255, 0.37)"></path><path d="M114.72 796.3a5.6 5.6 0 1 0 7.38 8.43 5.6 5.6 0 1 0-7.38-8.43zM125.26 808.34a5.6 5.6 0 1 0 7.38 8.43 5.6 5.6 0 1 0-7.38-8.43zM135.8 820.38a5.6 5.6 0 1 0 7.37 8.43 5.6 5.6 0 1 0-7.37-8.43zM146.34 832.42a5.6 5.6 0 1 0 7.37 8.43 5.6 5.6 0 1 0-7.37-8.43zM81.6 782.77a5.6 5.6 0 1 0 7.38 8.42 5.6 5.6 0 1 0-7.38-8.42zM92.14 794.8a5.6 5.6 0 1 0 7.38 8.43 5.6 5.6 0 1 0-7.38-8.43zM102.68 806.84a5.6 5.6 0 1 0 7.38 8.43 5.6 5.6 0 1 0-7.38-8.43zM113.22 818.88a5.6 5.6 0 1 0 7.38 8.43 5.6 5.6 0 1 0-7.38-8.43z" fill="rgba(255, 0, 158, 0.37)"></path><rect width="624" height="624" clip-path="url(&quot;#SvgjsClipPath12765&quot;)" x="541.09" y="185.7" fill="url(&quot;#SvgjsPattern12766&quot;)" transform="rotate(278.26, 853.09, 497.7)"></rect><rect width="231" height="231" clip-path="url(&quot;#SvgjsClipPath12767&quot;)" x="551.16" y="10.92" fill="url(&quot;#SvgjsPattern12768&quot;)" transform="rotate(337.22, 666.66, 126.42)"></rect><rect width="120.8" height="120.8" clip-path="url(&quot;#SvgjsClipPath12769&quot;)" x="1841.75" y="686.61" fill="url(&quot;#SvgjsPattern12770&quot;)" transform="rotate(239.49, 1902.15, 747.01)"></rect><path d="M1029.55 860.35a5.6 5.6 0 1 0 3.61 10.61 5.6 5.6 0 1 0-3.61-10.61zM1034.7 875.5a5.6 5.6 0 1 0 3.61 10.61 5.6 5.6 0 1 0-3.61-10.61zM1039.85 890.65a5.6 5.6 0 1 0 3.61 10.6 5.6 5.6 0 1 0-3.61-10.6zM1045.01 905.8a5.6 5.6 0 1 0 3.6 10.6 5.6 5.6 0 1 0-3.6-10.6zM1004.1 835.21a5.6 5.6 0 1 0 3.61 10.6 5.6 5.6 0 1 0-3.61-10.6zM1009.25 850.36a5.6 5.6 0 1 0 3.61 10.6 5.6 5.6 0 1 0-3.61-10.6zM1014.4 865.51a5.6 5.6 0 1 0 3.61 10.6 5.6 5.6 0 1 0-3.61-10.6zM1019.56 880.65a5.6 5.6 0 1 0 3.6 10.61 5.6 5.6 0 1 0-3.6-10.61zM978.65 810.06a5.6 5.6 0 1 0 3.61 10.61 5.6 5.6 0 1 0-3.61-10.61zM983.8 825.21a5.6 5.6 0 1 0 3.61 10.61 5.6 5.6 0 1 0-3.61-10.61zM988.95 840.36a5.6 5.6 0 1 0 3.61 10.6 5.6 5.6 0 1 0-3.61-10.6zM994.1 855.51a5.6 5.6 0 1 0 3.61 10.6 5.6 5.6 0 1 0-3.61-10.6z" fill="rgba(75, 0, 255, 0.37)"></path></g><defs><mask id="SvgjsMask12762"><rect width="1920" height="1080" fill="#ffffff"></rect></mask><pattern x="0" y="0" width="6" height="6" patternUnits="userSpaceOnUse" id="SvgjsPattern12764"><path d="M0 6L3 0L6 6" stroke="rgba(75, 0, 255, 0.37)" fill="none"></path></pattern><clipPath id="SvgjsClipPath12763"><circle r="168" cx="1488.88" cy="605.77"></circle></clipPath><pattern x="0" y="0" width="6" height="6" patternUnits="userSpaceOnUse" id="SvgjsPattern12766"><path d="M0 6L3 0L6 6" stroke="rgba(75, 0, 255, 0.37)" fill="none"></path></pattern><clipPath id="SvgjsClipPath12765"><circle r="156" cx="853.09" cy="497.7"></circle></clipPath><pattern x="0" y="0" width="7.7" height="7.7" patternUnits="userSpaceOnUse" id="SvgjsPattern12768"><path d="M0 7.7L3.85 0L7.7 7.7" stroke="rgba(255, 0, 158, 0.37)" fill="none"></path></pattern><clipPath id="SvgjsClipPath12767"><circle r="57.75" cx="666.66" cy="126.42"></circle></clipPath><pattern x="0" y="0" width="12.08" height="12.08" patternUnits="userSpaceOnUse" id="SvgjsPattern12770"><path d="M0 12.08L6.04 0L12.08 12.08" stroke="rgba(75, 0, 255, 0.37)" fill="none"></path></pattern><clipPath id="SvgjsClipPath12769"><circle r="30.2" cx="1902.15" cy="747.01"></circle></clipPath></defs></svg>