<svg xmlns="http://www.w3.org/2000/svg" version="1.1" xmlns:xlink="http://www.w3.org/1999/xlink" xmlns:svgjs="http://svgjs.dev/svgjs" width="1920" height="1080" preserveAspectRatio="none" viewBox="0 0 1920 1080"><g mask="url(&quot;#SvgjsMask12963&quot;)" fill="none"><path d="M396.5 766.32 L697.9 877.61L676.9553676389357 692.2096323610645z" fill="rgba(151, 0, 255, 0.37)"></path><rect width="118" height="118" clip-path="url(&quot;#SvgjsClipPath12964&quot;)" x="-32.5" y="855.91" fill="url(&quot;#SvgjsPattern12965&quot;)" transform="rotate(222.35, 26.5, 914.91)"></rect><rect width="523.32" height="523.32" clip-path="url(&quot;#SvgjsClipPath12966&quot;)" x="590.74" y="8.11" fill="url(&quot;#SvgjsPattern12967&quot;)" transform="rotate(108.89, 852.4, 269.77)"></rect><rect width="180" height="180" clip-path="url(&quot;#SvgjsClipPath12968&quot;)" x="1052.56" y="206.9" fill="url(&quot;#SvgjsPattern12969&quot;)" transform="rotate(153.37, 1142.56, 296.9)"></rect><rect width="396" height="396" clip-path="url(&quot;#SvgjsClipPath12970&quot;)" x="976.98" y="729.11" fill="url(&quot;#SvgjsPattern12971&quot;)" transform="rotate(216.31, 1174.98, 927.11)"></rect><rect width="132" height="132" clip-path="url(&quot;#SvgjsClipPath12972&quot;)" x="1704.71" y="30.4" fill="url(&quot;#SvgjsPattern12973&quot;)" transform="rotate(122.52, 1770.71, 96.4)"></rect><rect width="60" height="60" clip-path="url(&quot;#SvgjsClipPath12974&quot;)" x="1709.16" y="604.62" fill="url(&quot;#SvgjsPattern12975&quot;)" transform="rotate(116.2, 1739.16, 634.62)"></rect><circle r="133.1700124028106" cx="1592.18" cy="540.23" fill="rgba(63, 0, 255, 0.37)"></circle></g><defs><mask id="SvgjsMask12963"><rect width="1920" height="1080" fill="#ffffff"></rect></mask><pattern x="0" y="0" width="11.8" height="11.8" patternUnits="userSpaceOnUse" id="SvgjsPattern12965"><path d="M5.9 1L5.9 10.8M1 5.9L10.8 5.9" stroke="rgba(63, 0, 255, 0.37)" fill="none" stroke-width="4.65"></path></pattern><clipPath id="SvgjsClipPath12964"><circle r="29.5" cx="26.5" cy="914.91"></circle></clipPath><pattern x="0" y="0" width="12.46" height="12.46" patternUnits="userSpaceOnUse" id="SvgjsPattern12967"><path d="M6.23 1L6.23 11.46M1 6.23L11.46 6.23" stroke="rgba(63, 0, 255, 0.37)" fill="none" stroke-width="2.04"></path></pattern><clipPath id="SvgjsClipPath12966"><circle r="130.83" cx="852.4" cy="269.77"></circle></clipPath><pattern x="0" y="0" width="180" height="6" patternUnits="userSpaceOnUse" id="SvgjsPattern12969"><rect width="180" height="3" x="0" y="0" fill="rgba(75, 0, 255, 0.37)"></rect><rect width="180" height="3" x="0" y="3" fill="rgba(0, 0, 0, 0)"></rect></pattern><clipPath id="SvgjsClipPath12968"><circle r="45" cx="1142.56" cy="296.9"></circle></clipPath><pattern x="0" y="0" width="396" height="6" patternUnits="userSpaceOnUse" id="SvgjsPattern12971"><rect width="396" height="3" x="0" y="0" fill="rgba(151, 0, 255, 0.37)"></rect><rect width="396" height="3" x="0" y="3" fill="rgba(0, 0, 0, 0)"></rect></pattern><clipPath id="SvgjsClipPath12970"><circle r="99" cx="1174.98" cy="927.11"></circle></clipPath><pattern x="0" y="0" width="6" height="6" patternUnits="userSpaceOnUse" id="SvgjsPattern12973"><path d="M0 6L3 0L6 6" stroke="rgba(151, 0, 255, 0.37)" fill="none"></path></pattern><clipPath id="SvgjsClipPath12972"><circle r="33" cx="1770.71" cy="96.4"></circle></clipPath><pattern x="0" y="0" width="6" height="6" patternUnits="userSpaceOnUse" id="SvgjsPattern12975"><path d="M3 1L3 5M1 3L5 3" stroke="rgba(151, 0, 255, 0.37)" fill="none" stroke-width="1"></path></pattern><clipPath id="SvgjsClipPath12974"><circle r="15" cx="1739.16" cy="634.62"></circle></clipPath></defs></svg>